<svg width="59" height="59" viewBox="0 0 59 59" fill="none" xmlns="http://www.w3.org/2000/svg">
<path d="M42.6251 28.9881C42.6251 28.0799 42.6251 27.6257 42.7616 27.2215C43.1579 26.0455 44.2053 25.5914 45.2553 25.1136C46.4313 24.5755 47.0193 24.3077 47.6047 24.2605C48.2662 24.208 48.9303 24.3497 49.4973 24.6674C50.2481 25.0874 50.7731 25.8906 51.3086 26.5416C53.7839 29.5499 55.0229 31.054 55.4744 32.7104C55.8419 34.0491 55.8419 35.4509 55.4744 36.787C54.8156 39.2072 52.7287 41.2337 51.1826 43.1132C50.3924 44.0714 49.9961 44.5517 49.4973 44.8326C48.9206 45.1524 48.2619 45.294 47.6047 45.2395C47.0193 45.1922 46.4313 44.9245 45.2527 44.3864C44.2027 43.9086 43.1579 43.4545 42.7616 42.2785C42.6251 41.8742 42.6251 41.4201 42.6251 40.5145V28.9881ZM16.3751 28.9881C16.3751 27.8436 16.3436 26.8172 15.4196 26.014C15.0836 25.7226 14.6373 25.5205 13.7474 25.1136C12.5688 24.5781 11.9808 24.3077 11.3954 24.2605C9.64456 24.1187 8.70219 25.3157 7.69419 26.5442C5.21619 29.5499 3.97719 31.054 3.52306 32.713C3.15768 34.0473 3.15768 35.4553 3.52306 36.7896C4.18456 39.2072 6.27406 41.2364 7.81756 43.1132C8.79144 44.2945 9.72331 45.3734 11.3954 45.2395C11.9808 45.1922 12.5688 44.9245 13.7474 44.3864C14.6399 43.9821 15.0836 43.7774 15.4196 43.486C16.3436 42.6827 16.3751 41.6564 16.3751 40.5145V28.9881Z" stroke="white" stroke-width="6" stroke-linecap="round" stroke-linejoin="round"/>
<path d="M50.5 25.5625V21.625C50.5 11.4768 41.0973 3.25 29.5 3.25C17.9027 3.25 8.5 11.4768 8.5 21.625V25.5625M50.5 43.9375C50.5 55.75 40 55.75 29.5 55.75" stroke="white" stroke-width="6" stroke-linecap="round" stroke-linejoin="round"/>
</svg>
